{
	"asset":{
		"generator":"Khronos glTF Blender I/O v4.2.57",
		"version":"2.0"
	},
	"scene":0,
	"scenes":[
		{
			"name":"Scene",
			"nodes":[
				0
			]
		}
	],
	"nodes":[
		{
			"mesh":0,
			"name":"arco.004"
		}
	],
	"meshes":[
		{
			"name":"Cube.004",
			"primitives":[
				{
					"attributes":{
						"POSITION":0,
						"NORMAL":1,
						"TEXCOORD_0":2
					},
					"indices":3
				}
			]
		}
	],
	"accessors":[
		{
			"bufferView":0,
			"componentType":5126,
			"count":30980,
			"max":[
				5.738040447235107,
				18.186368942260742,
				1.4897878170013428
			],
			"min":[
				-5.685946464538574,
				0.061800528317689896,
				-1.1956363916397095
			],
			"type":"VEC3"
		},
		{
			"bufferView":1,
			"componentType":5126,
			"count":30980,
			"type":"VEC3"
		},
		{
			"bufferView":2,
			"componentType":5126,
			"count":30980,
			"type":"VEC2"
		},
		{
			"bufferView":3,
			"componentType":5123,
			"count":187986,
			"type":"SCALAR"
		}
	],
	"bufferViews":[
		{
			"buffer":0,
			"byteLength":371760,
			"byteOffset":0,
			"target":34962
		},
		{
			"buffer":0,
			"byteLength":371760,
			"byteOffset":371760,
			"target":34962
		},
		{
			"buffer":0,
			"byteLength":247840,
			"byteOffset":743520,
			"target":34962
		},
		{
			"buffer":0,
			"byteLength":375972,
			"byteOffset":991360,
			"target":34963
		}
	],
	"buffers":[
		{
			"byteLength":1367332,
			"uri":"modelo.bin"
		}
	]
}
