<?xml version="1.0" encoding="utf-8"?>
<!-- Generator: Adobe Illustrator 28.4.1, SVG Export Plug-In . SVG Version: 6.00 Build 0)  -->
<svg version="1.1" id="Capa_1" xmlns="http://www.w3.org/2000/svg" xmlns:xlink="http://www.w3.org/1999/xlink" x="0px" y="0px"
	 viewBox="0 0 50 50" style="enable-background:new 0 0 50 50;" xml:space="preserve">
<style type="text/css">
	.st0{fill:#FFFFFF;}
</style>
<path d="M23.44,0c1.04,0,2.08,0,3.12,0c0.13,0.03,0.25,0.07,0.38,0.08c3.87,0.29,7.5,1.4,10.81,3.43
	c6.49,3.97,10.46,9.7,11.86,17.18c0.17,0.91,0.26,1.83,0.38,2.75c0,1.04,0,2.08,0,3.12c-0.03,0.13-0.07,0.25-0.08,0.38
	c-0.33,4.3-1.66,8.27-4.08,11.85c-3.98,5.89-9.48,9.52-16.49,10.83c-0.92,0.17-1.86,0.26-2.79,0.39c-1.04,0-2.08,0-3.12,0
	c-0.12-0.03-0.25-0.07-0.38-0.08c-4.98-0.39-9.46-2.1-13.39-5.19c-5.05-3.97-8.17-9.13-9.3-15.47c-0.16-0.89-0.25-1.8-0.37-2.7
	c0-1.04,0-2.08,0-3.12c0.04-0.32,0.08-0.64,0.12-0.96c0.59-5.4,2.66-10.16,6.31-14.19c3.86-4.27,8.63-6.92,14.32-7.91
	C21.64,0.22,22.54,0.12,23.44,0z M21.77,24.9c0,0.26,0,0.46,0,0.65c0,3.74,0,7.48,0,11.22c0,0.65,0.03,0.68,0.69,0.68
	c1.24,0,2.47,0,3.71,0c0.66,0,0.69-0.03,0.69-0.69c0-3.76,0-7.52,0-11.27c0-0.19,0-0.38,0-0.59c1.04,0,2.02-0.02,2.99,0.01
	c0.43,0.01,0.58-0.17,0.6-0.56c0.06-0.86,0.15-1.72,0.21-2.58c0.09-1.24,0.3-1.18-1.1-1.18c-0.89,0-1.78,0-2.7,0
	c0-0.86,0-1.66,0-2.45c0.01-0.85,0.41-1.26,1.25-1.27c0.72-0.01,1.43-0.01,2.15,0c0.37,0,0.53-0.14,0.52-0.52
	c-0.01-1.11-0.01-2.21,0-3.32c0-0.32-0.12-0.49-0.45-0.49c-1.48,0.01-2.96-0.04-4.44,0.04c-2.04,0.11-3.73,1.6-4.02,3.62
	c-0.18,1.25-0.08,2.53-0.11,3.8c0,0.19,0,0.37,0,0.59c-0.71,0-1.35,0.02-1.98-0.01c-0.42-0.02-0.59,0.12-0.58,0.56
	c0.02,1.07,0.02,2.15,0,3.22c-0.01,0.4,0.14,0.56,0.54,0.54C20.41,24.89,21.06,24.9,21.77,24.9z"/>
<path class="st0" d="M21.77,24.9c-0.71,0-1.36-0.01-2.01,0.01c-0.4,0.01-0.55-0.14-0.54-0.54c0.02-1.07,0.02-2.15,0-3.22
	c-0.01-0.44,0.16-0.57,0.58-0.56c0.63,0.02,1.27,0.01,1.98,0.01c0-0.22,0-0.4,0-0.59c0.03-1.27-0.07-2.55,0.11-3.8
	c0.29-2.03,1.98-3.51,4.02-3.62c1.48-0.08,2.96-0.03,4.44-0.04c0.33,0,0.45,0.16,0.45,0.49c-0.01,1.11-0.01,2.21,0,3.32
	c0,0.38-0.16,0.53-0.52,0.52c-0.72-0.01-1.43-0.01-2.15,0c-0.84,0.01-1.25,0.42-1.25,1.27c-0.01,0.79,0,1.59,0,2.45
	c0.92,0,1.81,0,2.7,0c1.4,0,1.18-0.06,1.1,1.18c-0.06,0.86-0.15,1.72-0.21,2.58c-0.03,0.4-0.18,0.58-0.6,0.56
	c-0.97-0.02-1.95-0.01-2.99-0.01c0,0.22,0,0.41,0,0.59c0,3.76,0,7.52,0,11.27c0,0.65-0.03,0.69-0.69,0.69c-1.24,0-2.47,0-3.71,0
	c-0.66,0-0.69-0.03-0.69-0.68c0-3.74,0-7.48,0-11.22C21.77,25.36,21.77,25.17,21.77,24.9z"/>
</svg>
