<?xml version="1.0" encoding="utf-8"?>
<!-- Generator: Adobe Illustrator 28.4.1, SVG Export Plug-In . SVG Version: 6.00 Build 0)  -->
<svg version="1.1" id="Capa_1" xmlns="http://www.w3.org/2000/svg" xmlns:xlink="http://www.w3.org/1999/xlink" x="0px" y="0px"
	 viewBox="0 0 50 50" style="enable-background:new 0 0 50 50;" xml:space="preserve">
<style type="text/css">
	.st0{fill:#FFFFFF;}
</style>
<g>
	<path class="st0" d="M17.4,31.56c-0.29,0-0.5,0-0.76,0c0,1.23,0,2.44,0,3.67c-1.09,0-2.13,0-3.22,0c-0.01-0.13-0.02-0.27-0.02-0.4
		c0-2.68,0-5.37,0-8.05c0-0.93,0.39-1.38,1.31-1.4c1.53-0.03,3.07-0.03,4.6,0c0.93,0.02,1.31,0.46,1.32,1.39c0,2.85,0,5.7,0,8.55
		c0,0.16,0,0.33,0,0.54c7.99,0,15.95,0,23.93,0c0,0.85,0,1.64,0,2.48c-0.16,0-0.31,0-0.46,0c-8.33,0-16.65,0-24.98,0
		c-0.17,0-0.33,0-0.5-0.02c-0.86-0.1-1.22-0.5-1.22-1.37c-0.01-1.63,0-3.27,0-4.9C17.4,31.9,17.4,31.75,17.4,31.56z M17.37,29.03
		c0-0.41,0-0.79,0-1.18c-0.25,0-0.48,0-0.72,0c0,0.41,0,0.78,0,1.18C16.89,29.03,17.1,29.03,17.37,29.03z"/>
	<path class="st0" d="M36.61,35.25c-1.02,0-1.98,0-2.93,0c-0.08,0-0.16-0.01-0.28-0.02c0-1.22,0-2.42,0-3.65c-0.27,0-0.51,0-0.8,0
		c0,1.21,0,2.42,0,3.65c-1.1,0-2.14,0-3.23,0c0-0.17,0-0.32,0-0.46c0-2.62,0-5.23,0-7.85c0-1.15,0.38-1.55,1.53-1.56
		c1.4-0.02,2.79-0.02,4.19,0c1.13,0.01,1.51,0.43,1.51,1.55c0,2.6,0,5.2,0,7.8C36.61,34.87,36.61,35.03,36.61,35.25z M33.34,29.03
		c0-0.42,0-0.8,0-1.18c-0.26,0-0.48,0-0.72,0c0,0.4,0,0.78,0,1.18C32.86,29.03,33.09,29.03,33.34,29.03z"/>
	<path class="st0" d="M44.59,28.41c-1.1,0-2.15,0-3.21,0c-0.01-0.2-0.02-0.37-0.04-0.56c-0.25,0-0.48,0-0.73,0c0,0.4,0,0.78,0,1.2
		c0.72,0,1.42-0.01,2.13,0c0.32,0.01,0.64,0.02,0.95,0.09c0.58,0.13,0.89,0.5,0.9,1.08c0.02,1.29,0.02,2.57,0,3.86
		c-0.01,0.59-0.33,0.94-0.9,1.08c-0.03,0.01-0.05,0.01-0.08,0.01c-1.75,0-3.51,0.04-5.26-0.02c-0.68-0.02-0.97-0.48-0.98-1.17
		c-0.01-0.59,0-1.18,0-1.81c1.08,0,2.12,0,3.19,0c0.02,0.18,0.03,0.36,0.05,0.56c0.24,0,0.47,0,0.73,0c0-0.39,0-0.78,0-1.21
		c-0.17,0-0.31,0-0.46,0c-0.76-0.01-1.52,0.01-2.28-0.02c-0.83-0.04-1.22-0.48-1.22-1.31c0-1.18,0-2.35,0-3.53
		c0-0.83,0.39-1.28,1.22-1.3c1.59-0.03,3.18-0.03,4.77,0c0.83,0.02,1.23,0.49,1.23,1.3C44.6,27.24,44.59,27.81,44.59,28.41z"/>
	<path class="st0" d="M12.64,29.51c-1.1,0-2.14,0-3.23,0c0-0.56,0-1.1,0-1.67c-0.27,0-0.49,0-0.74,0c0,1.62,0,3.25,0,4.9
		c0.22,0,0.45,0,0.72,0c0-0.75,0-1.5,0-2.28c1.09,0,2.14,0,3.21,0c0.01,0.09,0.03,0.2,0.03,0.3c0,1.05,0,2.1,0,3.16
		c0,0.78-0.3,1.13-1.07,1.27c-0.18,0.03-0.36,0.05-0.54,0.05c-1.34,0-2.68,0.01-4.02,0c-0.29,0-0.58-0.05-0.85-0.13
		c-0.48-0.14-0.73-0.5-0.73-0.99c-0.01-2.55-0.01-5.09,0-7.64c0-0.64,0.45-1.06,1.17-1.1c0.63-0.04,1.27-0.03,1.91-0.03
		c0.94,0,1.88-0.02,2.82,0.02c0.93,0.03,1.32,0.47,1.32,1.39C12.65,27.66,12.64,28.57,12.64,29.51z"/>
	<path class="st0" d="M28.61,28.42c-1.09,0-2.12,0-3.15,0c-0.16-0.66-0.19-0.68-0.84-0.53c0,0.36,0,0.73,0,1.14
		c0.17,0.01,0.33,0.02,0.49,0.02c0.8,0.02,1.6,0,2.4,0.06c0.74,0.06,1.08,0.47,1.09,1.21c0.01,1.23,0.01,2.46,0,3.69
		c-0.01,0.69-0.31,1.03-0.99,1.17c-0.18,0.04-0.36,0.06-0.53,0.06c-1.38,0.01-2.77,0.01-4.15,0c-0.26,0-0.52-0.05-0.77-0.12
		c-0.44-0.12-0.73-0.43-0.75-0.89c-0.03-0.67-0.01-1.35-0.01-2.05c1.06,0,2.11,0,3.18,0c0.01,0.18,0.03,0.35,0.04,0.55
		c0.25,0,0.49,0,0.75,0c0-0.39,0-0.77,0-1.21c-0.73,0-1.43,0.01-2.13,0c-0.32,0-0.64-0.01-0.95-0.08c-0.6-0.13-0.9-0.47-0.91-1.07
		c-0.03-1.29-0.03-2.57,0-3.86c0.01-0.67,0.41-1.11,1.09-1.13c1.68-0.04,3.37-0.05,5.06,0c0.71,0.02,1.05,0.48,1.07,1.19
		C28.62,27.18,28.61,27.77,28.61,28.42z"/>
	<path class="st0" d="M36.65,14.66c0,0.45,0,0.86,0,1.29c-7.78,0-15.53,0-23.31,0c0-1.42,0-2.84,0-4.28
		c1.47,0.24,2.93,0.47,4.38,0.71c4.04,0.65,8.08,1.27,12.11,1.96c1.59,0.27,3.18,0.34,4.79,0.32
		C35.27,14.65,35.94,14.66,36.65,14.66z"/>
	<path class="st0" d="M15.8,20.48c-0.18,0-0.31,0-0.48,0c0,1.41,0,2.81,0,4.23c-0.68,0-1.32,0-1.99,0c0-2.7,0-5.41,0-8.13
		c0.65,0,1.28,0,1.97,0c0,0.76,0,1.53,0,2.32c0.18,0.01,0.32,0.02,0.5,0.03c0-0.79,0-1.56,0-2.35c0.69,0,1.33,0,2.02,0
		c0,2.21,0,4.4,0,6.63c1.69,0,3.33,0,4.99,0c0,0.52,0,1,0,1.52c-0.16,0.01-0.3,0.02-0.45,0.02c-1.77,0-3.54,0-5.31,0
		c-0.18,0-0.36-0.01-0.54-0.04c-0.5-0.07-0.7-0.3-0.7-0.8C15.8,22.78,15.8,21.65,15.8,20.48z"/>
	<path class="st0" d="M12.63,18.71c0,1.98,0,3.97,0,5.99c-3.9,0-7.78,0-11.79,0C4.83,22.67,8.72,20.69,12.63,18.71z"/>
	<path class="st0" d="M37.4,18.72c3.9,1.98,7.78,3.95,11.76,5.97c-3.98,0-7.86,0-11.76,0C37.4,22.69,37.4,20.7,37.4,18.72z"/>
	<path class="st0" d="M18.3,19.68c0-0.75,0-1.49,0-2.24c0-0.57,0.25-0.86,0.82-0.87c0.97-0.02,1.94-0.02,2.9,0
		c0.55,0.01,0.8,0.29,0.8,0.85c0.01,1.52,0.01,3.04,0,4.57c0,0.54-0.24,0.8-0.78,0.82c-0.98,0.02-1.96,0.02-2.94,0
		c-0.57-0.01-0.8-0.29-0.8-0.88C18.29,21.18,18.3,20.43,18.3,19.68z M20.77,21.26c0-1.05,0-2.08,0-3.13c-0.15,0-0.28,0-0.44,0
		c0,1.05,0,2.08,0,3.13C20.49,21.26,20.62,21.26,20.77,21.26z"/>
	<path class="st0" d="M25.31,21.27c0.18,0,0.3,0,0.47,0c0-1.56,0-3.12,0-4.69c0.7,0,1.35,0,2.01,0c0.01,0.14,0.02,0.26,0.02,0.38
		c0,1.63,0,3.27,0,4.9c0,0.69-0.22,0.94-0.91,0.95c-0.91,0.02-1.83,0.02-2.74,0c-0.66-0.01-0.89-0.27-0.89-0.93
		c0-1.65,0-3.29,0-4.94c0-0.11,0-0.22,0-0.35c0.68,0,1.32,0,2.02,0C25.31,18.14,25.31,19.69,25.31,21.27z"/>
	<path class="st0" d="M28.34,20.91c0.63,0,1.26,0,1.92,0c0.03,0.12,0.06,0.23,0.09,0.36c0.13,0,0.25,0,0.41,0c0-0.23,0-0.46,0-0.73
		c-0.15-0.01-0.29-0.02-0.44-0.02c-0.46-0.01-0.91,0-1.37-0.04c-0.43-0.04-0.65-0.28-0.66-0.71c-0.02-0.82-0.02-1.63,0-2.45
		c0.01-0.46,0.26-0.72,0.73-0.73c1.01-0.03,2.02-0.03,3.03,0c0.5,0.01,0.74,0.3,0.76,0.8c0.01,0.34,0,0.69,0,1.1
		c-0.34,0-0.67,0-0.99,0c-0.32,0-0.63,0-0.98,0c-0.03-0.3-0.16-0.47-0.5-0.33c0,0.22,0,0.45,0,0.73c0.5,0,1-0.01,1.49,0
		c0.65,0.01,0.99,0.35,0.99,1c0,0.69,0,1.38,0,2.08c0,0.56-0.24,0.83-0.8,0.84c-0.98,0.02-1.96,0.02-2.94,0
		c-0.54-0.01-0.77-0.27-0.78-0.81c-0.01-0.32,0-0.64,0.01-0.95C28.29,21,28.32,20.96,28.34,20.91z"/>
	<path class="st0" d="M36.68,22.8c-1.14,0-2.24,0-3.37,0c0-2.07,0-4.13,0-6.21c1.11,0,2.22,0,3.36,0c0,0.48,0,0.96,0,1.5
		c-0.44,0-0.88,0-1.35,0c0,0.29,0,0.52,0,0.78c0.44,0,0.87,0,1.32,0c0,0.55,0,1.07,0,1.62c-0.43,0-0.86,0-1.31,0
		c0,0.27,0,0.5,0,0.78c0.43,0,0.88,0,1.35,0C36.68,21.81,36.68,22.29,36.68,22.8z"/>
	<path class="st0" d="M23.46,24.81c0-0.58,0-1.07,0-1.57c0.55,0,1.08-0.04,1.61,0.01c0.37,0.03,0.64,0.27,0.66,0.68
		c0.01,0.4-0.22,0.69-0.59,0.75C24.6,24.77,24.05,24.77,23.46,24.81z M24.03,24.59c0.4-0.14,0.73-0.22,1.02-0.38
		c0.08-0.04,0.06-0.47-0.01-0.51c-0.3-0.14-0.64-0.19-1.01-0.28C24.03,23.84,24.03,24.13,24.03,24.59z"/>
	<path class="st0" d="M34.13,24.86c-0.21-0.11-0.4-0.28-0.62-0.31c-0.34-0.05-0.71-0.04-1.05,0.01c-0.22,0.03-0.42,0.19-0.63,0.29
		c-0.03-0.04-0.06-0.09-0.09-0.13c0.29-0.48,0.55-0.98,0.91-1.41c0.1-0.12,0.61-0.12,0.71,0.01c0.35,0.42,0.6,0.91,0.88,1.38
		C34.2,24.75,34.17,24.8,34.13,24.86z"/>
	<path class="st0" d="M36.2,24.27c-0.3-0.06-0.53-0.1-0.76-0.15c-0.23-0.05-0.47-0.07-0.68-0.15c-0.22-0.08-0.35-0.28-0.19-0.49
		c0.26-0.35,0.68-0.34,1.06-0.33c0.37,0.02,0.77,0.03,1,0.48c-0.55,0.24-1.04-0.53-1.62,0.02c0.21,0.06,0.38,0.11,0.56,0.14
		c0.3,0.06,0.6,0.09,0.89,0.19c0.29,0.1,0.33,0.36,0.13,0.56c-0.36,0.38-1.71,0.34-2.05-0.06c-0.03-0.04-0.04-0.1-0.07-0.18
		C35.04,24.12,35.57,24.87,36.2,24.27z"/>
	<path class="st0" d="M28.03,23.93c-0.09,0.06-0.18,0.15-0.28,0.16c-0.26,0.02-0.53-0.01-0.78,0.02c-0.1,0.01-0.19,0.14-0.28,0.22
		c0.02,0.04,0.05,0.09,0.07,0.13c0.41,0,0.82-0.01,1.23,0.01c0.07,0,0.13,0.09,0.2,0.14c-0.06,0.05-0.13,0.15-0.19,0.15
		c-0.6,0.01-1.21,0.01-1.83,0.01c0-0.54,0-1.03,0-1.58c0.6,0,1.19,0,1.78,0.01c0.06,0,0.12,0.1,0.19,0.15
		c-0.07,0.05-0.14,0.13-0.21,0.13c-0.3,0.02-0.61,0-0.91,0.02c-0.1,0.01-0.2,0.09-0.3,0.14c0.02,0.05,0.03,0.1,0.05,0.14
		c0.41,0,0.81,0,1.22,0C27.99,23.84,28.01,23.89,28.03,23.93z"/>
	<path class="st0" d="M30.21,24.47c0.41,0,0.76-0.01,1.1,0.01c0.08,0,0.17,0.08,0.25,0.13c-0.07,0.06-0.14,0.16-0.22,0.17
		c-0.55,0.01-1.1,0.01-1.67,0.01c0-0.54,0-1.04,0-1.56c0.18,0,0.34,0,0.54,0C30.21,23.62,30.21,24.01,30.21,24.47z"/>
</g>
</svg>
