<?xml version="1.0" encoding="utf-8"?>
<!-- Generator: Adobe Illustrator 28.4.1, SVG Export Plug-In . SVG Version: 6.00 Build 0)  -->
<svg version="1.1" id="Capa_1" xmlns="http://www.w3.org/2000/svg" xmlns:xlink="http://www.w3.org/1999/xlink" x="0px" y="0px"
	 viewBox="0 0 50 50" style="enable-background:new 0 0 50 50;" xml:space="preserve">
<style type="text/css">
	.st0{fill:#FFFFFF;}
</style>
<path d="M25.02,49.99C11.27,50,0.09,38.83,0.09,25.07c0-13.76,11.17-24.92,24.92-24.91c13.74,0.01,24.87,11.13,24.9,24.88
	C49.94,38.79,38.78,49.97,25.02,49.99z M38.84,25.1c0-1.7,0-3.4,0-5.09c-0.01-5.04-3.74-8.77-8.78-8.77c-3.41,0-6.83,0-10.24,0
	c-4.85,0.01-8.63,3.78-8.65,8.63c-0.01,3.47-0.01,6.94,0,10.41c0.02,4.86,3.79,8.62,8.65,8.63c3.47,0.01,6.94,0.01,10.41,0
	c4.83-0.02,8.59-3.78,8.61-8.6C38.84,28.57,38.84,26.84,38.84,25.1z"/>
<path class="st0" d="M38.84,25.1c0,1.73,0.01,3.47,0,5.2c-0.02,4.82-3.79,8.59-8.61,8.6c-3.47,0.01-6.94,0.01-10.41,0
	c-4.86-0.01-8.63-3.77-8.65-8.63c-0.01-3.47-0.01-6.94,0-10.41c0.02-4.86,3.8-8.63,8.65-8.63c3.41,0,6.83,0,10.24,0
	c5.04,0,8.78,3.73,8.78,8.77C38.84,21.71,38.84,23.41,38.84,25.1z M24.98,35.83c1.7,0,3.39,0.01,5.09,0
	c3.35-0.01,5.67-2.33,5.68-5.67c0.01-3.38,0.01-6.75,0-10.13c-0.01-3.37-2.33-5.69-5.71-5.7c-3.36-0.01-6.72-0.01-10.07,0
	c-3.38,0.01-5.7,2.34-5.71,5.7c-0.01,3.36,0,6.72,0,10.07c0,3.4,2.33,5.71,5.74,5.72C21.66,35.83,23.32,35.83,24.98,35.83z"/>
<path d="M24.98,35.83c-1.66,0-3.32,0-4.98,0c-3.42-0.01-5.74-2.32-5.74-5.72c0-3.36-0.01-6.72,0-10.07c0.01-3.37,2.33-5.7,5.71-5.7
	c3.36-0.01,6.72-0.01,10.07,0c3.38,0.01,5.71,2.33,5.71,5.7c0.01,3.38,0.01,6.75,0,10.13c-0.01,3.34-2.33,5.66-5.68,5.67
	C28.38,35.83,26.68,35.83,24.98,35.83z M24.98,17.99c-3.88,0.01-7.07,3.21-7.06,7.09c0.01,3.88,3.21,7.07,7.1,7.06
	c3.88-0.01,7.07-3.21,7.06-7.1C32.07,21.18,28.87,17.99,24.98,17.99z M32.44,18.77c0.66-0.01,1.19-0.54,1.18-1.2
	c-0.01-0.65-0.54-1.17-1.21-1.17c-0.66,0.01-1.19,0.54-1.18,1.19C31.24,18.26,31.78,18.78,32.44,18.77z"/>
<path class="st0" d="M24.98,17.99c3.89-0.01,7.09,3.18,7.1,7.06c0.01,3.89-3.18,7.09-7.06,7.1c-3.88,0.01-7.09-3.18-7.1-7.06
	C17.91,21.2,21.1,18,24.98,17.99z M29.3,25.06c-0.01-2.36-1.96-4.29-4.31-4.29c-2.35,0.01-4.3,1.96-4.29,4.31
	c0.01,2.35,1.96,4.3,4.31,4.29C27.37,29.37,29.31,27.41,29.3,25.06z"/>
<path class="st0" d="M32.44,18.77c-0.66,0.01-1.2-0.51-1.21-1.17c-0.01-0.65,0.52-1.19,1.18-1.19c0.67-0.01,1.2,0.51,1.21,1.17
	C33.63,18.23,33.1,18.76,32.44,18.77z"/>
<path d="M29.3,25.06c0.01,2.35-1.93,4.31-4.29,4.31c-2.35,0.01-4.31-1.94-4.31-4.29c-0.01-2.35,1.94-4.31,4.29-4.31
	C27.35,20.76,29.3,22.7,29.3,25.06z"/>
</svg>
