<?xml version="1.0" encoding="utf-8"?>
<!-- Generator: Adobe Illustrator 28.4.1, SVG Export Plug-In . SVG Version: 6.00 Build 0)  -->
<svg version="1.1" id="Capa_1" xmlns="http://www.w3.org/2000/svg" xmlns:xlink="http://www.w3.org/1999/xlink" x="0px" y="0px"
	 viewBox="0 0 50 50" style="enable-background:new 0 0 50 50;" xml:space="preserve">
<style type="text/css">
	.st0{fill:#010101;}
	.st1{fill:#FCFCFD;}
	.st2{fill:#E72D61;}
	.st3{fill:#11B9C1;}
	.st4{fill:#11B9C0;}
</style>
<path class="st0" d="M49.83,25c0.02,13.58-10.94,24.64-24.48,24.83C11.59,50.02,0.39,39.03,0.17,25.41
	C-0.06,11.56,11.07,0.16,25.03,0.16C38.74,0.17,49.81,11.27,49.83,25z M34.54,14.66L34.54,14.66c0.02-0.12-0.09-0.19-0.15-0.27
	c-0.61-0.79-1.05-1.66-1.35-2.6c-0.2-0.63-0.29-1.29-0.3-1.95c0-0.13,0.05-0.32-0.18-0.32c-0.45,0.01-0.91-0.04-1.36,0.04
	c-0.02-0.02-0.04-0.03-0.06-0.05c-0.02-0.32-0.07-0.65-0.05-0.97c0.02-0.33-0.1-0.41-0.41-0.4c-1.61,0.01-3.23,0.01-4.84,0.01
	c-0.48,0-0.48,0-0.48,0.49c0,7.34,0,14.69,0,22.03c0,3.01-2.56,5.21-5.53,4.78c-0.44-0.06-0.85-0.27-1.29-0.34
	c-0.07-0.06-0.13-0.12-0.2-0.18c0.02-0.04,0-0.04-0.03-0.03l-0.03-0.02c-0.13-0.43-0.41-0.8-0.57-1.23
	c-0.84-2.26,0.34-4.97,2.58-5.92c1.01-0.43,2.04-0.53,3.1-0.26c0.26,0.06,0.31-0.02,0.31-0.25c-0.01-1.73-0.01-3.47,0-5.2
	c0-0.21-0.08-0.32-0.28-0.32c-0.46-0.02-0.91-0.06-1.37-0.01c-0.02-0.02-0.03-0.03-0.05-0.05c0.01-0.31,0.01-0.62,0.03-0.93
	c0.02-0.23-0.05-0.34-0.31-0.36c-1.09-0.09-2.17-0.08-3.23,0.16c-4.11,0.95-6.86,3.43-7.99,7.48c-1.03,3.65-0.16,6.97,2.36,9.83
	c0.47,0.54,0.98,1.05,1.62,1.4c0.19,0.15,0.38,0.3,0.57,0.45c0,0.08,0.04,0.14,0.09,0.19c1.49,1.26,3.14,2.18,5.09,2.54
	c2.18,0.4,4.3,0.25,6.31-0.71c4.04-1.93,6.13-5.18,6.2-9.66c0.06-3.67,0.01-7.34,0.01-11.02c0-0.1-0.05-0.24,0.05-0.3
	c0.11-0.06,0.18,0.09,0.28,0.12c0.04,0.01,0.08,0.06,0.12,0.08c2.17,1.39,4.55,2.13,7.13,2.2c0.25,0.01,0.33-0.06,0.33-0.32
	c-0.01-1.02-0.01-2.05-0.01-3.07c0-0.67,0-1.35,0-2.02c0-0.14,0.02-0.28-0.21-0.29c-0.47-0.02-0.93-0.07-1.4-0.11
	c-0.03-0.03-0.05-0.06-0.08-0.08c0.08-0.25,0-0.5,0.04-0.75c0.05-0.31-0.08-0.43-0.39-0.43c-0.74-0.01-1.45-0.14-2.14-0.4
	c-0.49-0.18-0.97-0.4-1.46-0.61c-0.11-0.09-0.21-0.17-0.32-0.26C34.66,14.69,34.61,14.66,34.54,14.66z"/>
<path class="st1" d="M15.03,39.66c-0.19-0.15-0.38-0.3-0.57-0.45c-0.01-0.14-0.12-0.23-0.2-0.33c-1.13-1.33-1.92-2.84-2.26-4.56
	c-0.65-3.27,0.05-6.23,2.15-8.82c1.38-1.7,3.14-2.83,5.25-3.43c0.85-0.24,1.71-0.34,2.58-0.43c0.02,0.01,0.04,0.03,0.05,0.05
	c-0.01,1.35-0.03,2.69-0.02,4.04c0,0.34-0.06,0.42-0.42,0.34c-1.92-0.43-3.91,0.36-4.99,1.96c-1.13,1.66-1.13,3.75,0.01,5.42
	c0.42,0.62,0.94,1.15,1.65,1.44c0,0,0.03,0.02,0.03,0.02c0,0,0,0.03,0,0.03l0.03,0c0.07,0.06,0.13,0.12,0.2,0.18
	c-0.01,0.07,0.04,0.11,0.08,0.15c1.17,1.28,2.63,1.82,4.35,1.58c0.92-0.13,1.78-0.48,2.46-1.11c1.07-0.99,1.61-2.24,1.61-3.72
	c-0.01-7.34,0-14.68-0.01-22.03c0-0.34,0.08-0.46,0.44-0.45c1.23,0.02,2.45,0,3.68-0.01c0.02,0.02,0.04,0.03,0.06,0.05
	c0,0.07,0,0.14,0.01,0.21c0.31,1.45,0.97,2.73,1.99,3.8c0.4,0.42,0.8,0.85,1.35,1.1c0,0,0,0,0,0c0.01,0.08,0.06,0.11,0.13,0.11
	c0.11,0.09,0.21,0.17,0.32,0.26c-0.01,0.07,0.04,0.1,0.09,0.15c0.87,0.85,1.88,1.47,3.03,1.86c0.27,0.09,0.53,0.21,0.83,0.18
	c0.03,0.03,0.05,0.06,0.08,0.08c-0.09,0.12-0.05,0.26-0.05,0.38c0,1.2-0.02,2.41,0,3.61c0.01,0.35-0.1,0.41-0.43,0.4
	c-2.58-0.07-4.94-0.85-7.1-2.25c-0.1-0.06-0.2-0.2-0.31-0.15c-0.14,0.07-0.06,0.24-0.06,0.36c-0.01,3.66,0,7.32-0.01,10.98
	c-0.01,2.69-0.85,5.1-2.7,7.07c-2.93,3.11-6.5,4.13-10.65,3.07C16.76,40.55,15.9,40.09,15.03,39.66z"/>
<path class="st2" d="M15.03,39.66c0.87,0.43,1.72,0.9,2.67,1.14c4.15,1.05,7.72,0.04,10.65-3.07c1.85-1.97,2.69-4.38,2.7-7.07
	c0.01-3.66,0-7.32,0.01-10.98c0-0.12-0.08-0.3,0.06-0.36c0.11-0.05,0.21,0.09,0.31,0.15c2.16,1.4,4.52,2.17,7.1,2.25
	c0.33,0.01,0.44-0.06,0.43-0.4c-0.02-1.2-0.01-2.41,0-3.61c0-0.13-0.04-0.27,0.05-0.38c0.47,0.04,0.93,0.09,1.4,0.11
	c0.23,0.01,0.21,0.14,0.21,0.29c0,0.67,0,1.35,0,2.02c0,1.02-0.01,2.05,0.01,3.07c0,0.25-0.08,0.32-0.33,0.32
	c-2.58-0.08-4.95-0.82-7.13-2.2c-0.04-0.03-0.07-0.07-0.12-0.08c-0.1-0.03-0.18-0.18-0.28-0.12c-0.1,0.06-0.05,0.2-0.05,0.3
	c0,3.67,0.05,7.34-0.01,11.02c-0.07,4.48-2.16,7.72-6.2,9.66c-2,0.96-4.13,1.11-6.31,0.71c-1.94-0.36-3.6-1.27-5.09-2.54
	C15.07,39.79,15.03,39.74,15.03,39.66z"/>
<path class="st3" d="M31.13,9.51c-1.23,0.01-2.45,0.03-3.68,0.01c-0.36,0-0.44,0.11-0.44,0.45c0.01,7.34,0,14.68,0.01,22.03
	c0,1.48-0.55,2.72-1.61,3.72c-0.68,0.63-1.53,0.98-2.46,1.11c-1.72,0.25-3.17-0.29-4.35-1.58c-0.04-0.04-0.09-0.08-0.08-0.15
	c0.44,0.07,0.84,0.27,1.29,0.34c2.97,0.43,5.53-1.77,5.53-4.78c0-7.34,0-14.69,0-22.03c0-0.49,0-0.49,0.48-0.49
	c1.61,0,3.23,0.01,4.84-0.01c0.31,0,0.43,0.08,0.41,0.4C31.07,8.87,31.11,9.19,31.13,9.51z"/>
<path class="st4" d="M21.99,21.64c-0.87,0.09-1.73,0.19-2.58,0.43c-2.11,0.6-3.87,1.73-5.25,3.43c-2.1,2.59-2.8,5.56-2.15,8.82
	c0.34,1.71,1.13,3.22,2.26,4.56c0.08,0.1,0.19,0.19,0.2,0.33c-0.64-0.35-1.15-0.86-1.62-1.4c-2.52-2.86-3.38-6.18-2.36-9.83
	c1.14-4.04,3.89-6.53,7.99-7.48c1.06-0.24,2.14-0.25,3.23-0.16c0.26,0.02,0.32,0.13,0.31,0.36C22,21.02,22,21.33,21.99,21.64z"/>
<path class="st2" d="M18.27,34.88c-0.72-0.29-1.23-0.83-1.65-1.44c-1.14-1.67-1.14-3.76-0.01-5.42c1.08-1.6,3.07-2.39,4.99-1.96
	c0.36,0.08,0.42,0,0.42-0.34c-0.01-1.35,0.01-2.69,0.02-4.04c0.46-0.05,0.91-0.01,1.37,0.01c0.21,0.01,0.29,0.11,0.28,0.32
	c-0.01,1.73-0.01,3.47,0,5.2c0,0.24-0.05,0.32-0.31,0.25c-1.06-0.26-2.09-0.16-3.1,0.26c-2.24,0.95-3.42,3.66-2.58,5.92
	C17.86,34.08,18.14,34.45,18.27,34.88z"/>
<path class="st2" d="M34.54,14.67c-0.55-0.24-0.95-0.67-1.35-1.1c-1.02-1.08-1.68-2.35-1.99-3.8c-0.01-0.07-0.01-0.14-0.01-0.21
	c0.45-0.08,0.91-0.03,1.36-0.04c0.23,0,0.18,0.19,0.18,0.32c0.01,0.66,0.1,1.32,0.3,1.95c0.3,0.95,0.74,1.82,1.35,2.6
	C34.45,14.48,34.55,14.54,34.54,14.67z"/>
<path class="st4" d="M38.93,17.22c-0.3,0.03-0.56-0.09-0.83-0.18c-1.15-0.39-2.17-1.01-3.03-1.86c-0.04-0.04-0.09-0.07-0.09-0.15
	c0.49,0.2,0.97,0.43,1.46,0.61c0.69,0.26,1.41,0.39,2.14,0.4c0.31,0,0.44,0.12,0.39,0.43C38.94,16.72,39.01,16.97,38.93,17.22z"/>
<path class="st2" d="M34.67,14.77c-0.07-0.01-0.12-0.03-0.13-0.11C34.61,14.66,34.66,14.69,34.67,14.77z"/>
<path class="st2" d="M18.33,34.93l-0.03,0c0,0,0-0.03,0-0.03C18.33,34.89,18.35,34.9,18.33,34.93z"/>
</svg>
